<svg width="100" height="100" viewBox="0 0 100 100" fill="none" xmlns="http://www.w3.org/2000/svg">
<circle cx="50" cy="50" r="50" fill="#EDFFE1"/>
<path d="M40.9655 59.8171C40.9655 59.5141 41.123 59.2335 41.3797 59.0793L51.3375 53.0942C51.4894 53.0027 51.5827 52.8367 51.5827 52.6573V52.2622C51.5827 52.2001 51.5331 52.1497 51.4719 52.1497C51.4107 52.1497 51.3611 52.2001 51.3611 52.2622V52.5795C51.3611 52.7315 51.2822 52.8723 51.1534 52.9496L41.158 58.9573C40.9015 59.1116 40.744 59.392 40.744 59.6951V70.5452C40.744 70.6073 40.7936 70.6577 40.8548 70.6577C40.916 70.6577 40.9655 70.6073 40.9655 70.5452V59.8171Z" fill="#47A118"/>
<path d="M42.8941 61.0334C42.8941 60.7322 43.0496 60.4531 43.3037 60.2983L53.1016 54.3268C53.3557 54.172 53.5111 53.8929 53.5111 53.5917V52.2971C53.5111 52.235 53.4616 52.1846 53.4004 52.1846C53.3393 52.1846 53.2896 52.235 53.2896 52.2971V53.4718C53.2896 53.773 53.1341 54.0521 52.8799 54.2071L43.0823 60.1762C42.8281 60.3311 42.6725 60.6102 42.6725 60.9114V71.6777C42.6725 71.74 42.7222 71.7904 42.7834 71.7904C42.8444 71.7904 42.8941 71.74 42.8941 71.6777V61.0334Z" fill="#47A118"/>
<path d="M44.826 62.2496C44.826 61.9503 44.9796 61.6727 45.2313 61.5171L55.3921 55.2403C55.4237 55.2213 55.4431 55.1869 55.4431 55.1497V52.3321C55.4431 52.2698 55.3935 52.2194 55.3323 52.2194C55.2712 52.2194 55.2215 52.2698 55.2215 52.3321V54.6057C55.2215 54.905 55.0679 55.1827 54.8163 55.3382L44.6577 61.6151C44.6248 61.6339 44.6045 61.6693 44.6045 61.7076V72.8103C44.6045 72.8725 44.6541 72.9229 44.7153 72.9229C44.7765 72.9229 44.826 72.8725 44.826 72.8103V62.2496Z" fill="#47A118"/>
<path d="M46.7562 63.4659C46.7562 63.1683 46.908 62.8921 47.1572 62.7361L56.9723 56.5911C57.2215 56.4351 57.3733 56.1589 57.3733 55.8613V52.3647C57.3733 52.3025 57.3237 52.252 57.2625 52.252C57.2013 52.252 57.1518 52.3025 57.1518 52.3647V55.7415C57.1518 56.0391 57 56.3153 56.7507 56.4713L46.9357 62.6163C46.6865 62.7723 46.5347 63.0485 46.5347 63.346V73.945C46.5347 74.0072 46.5842 74.0576 46.6454 74.0576C46.7066 74.0576 46.7562 74.0072 46.7562 73.945V63.4659Z" fill="#47A118"/>
<path d="M59.1928 52.287C59.1316 52.287 59.0821 52.3374 59.0821 52.3995V56.8773C59.0821 57.1731 58.9321 57.4479 58.6852 57.6045L48.8618 63.8353C48.615 63.9919 48.465 64.2667 48.465 64.5625V75.0775C48.465 75.1398 48.5145 75.1902 48.5757 75.1902C48.6369 75.1902 48.6865 75.1398 48.6865 75.0775V64.6801C48.6865 64.3843 48.8365 64.1095 49.0833 63.9529L58.9068 57.7221C59.1536 57.5655 59.3036 57.2907 59.3036 56.9949V52.3995C59.3036 52.3374 59.254 52.287 59.1928 52.287Z" fill="#47A118"/>
<path d="M50.6168 65.8964C50.6168 65.6024 50.765 65.329 51.0093 65.1718L60.8413 58.8531C61.0857 58.6959 61.2338 58.4225 61.2338 58.1285V52.4321C61.2338 52.37 61.1842 52.3196 61.123 52.3196C61.0618 52.3196 61.0123 52.37 61.0123 52.4321V58.0109C61.0123 58.3049 60.8641 58.5783 60.6196 58.7354L50.7878 65.0542C50.5433 65.2113 50.3951 65.4848 50.3951 65.7788V76.21C50.3951 76.2722 50.4448 76.3226 50.506 76.3226C50.5671 76.3226 50.6168 76.2722 50.6168 76.21V65.8964Z" fill="#47A118"/>
<path d="M39.1473 69.4019V52.6501C39.1473 52.5878 39.0977 52.5374 39.0365 52.5374C38.9753 52.5374 38.9258 52.5878 38.9258 52.6501V69.4019C38.9258 69.464 38.9753 69.5144 39.0365 69.5144C39.0977 69.5144 39.1473 69.464 39.1473 69.4019Z" fill="#47A118"/>
<path d="M37.525 68.3521V52.5999C37.525 52.5378 37.4754 52.4874 37.4142 52.4874C37.353 52.4874 37.3035 52.5378 37.3035 52.5999V68.3521C37.3035 68.4142 37.353 68.4646 37.4142 68.4646C37.4754 68.4646 37.525 68.4142 37.525 68.3521Z" fill="#47A118"/>
<path d="M35.8995 67.3001V52.5476C35.8995 52.4855 35.8499 52.4351 35.7887 52.4351C35.7275 52.4351 35.678 52.4855 35.678 52.5476V67.3001C35.678 67.3622 35.7275 67.4127 35.7887 67.4127C35.8499 67.4127 35.8995 67.3622 35.8995 67.3001Z" fill="#47A118"/>
<path d="M34.2772 66.2481V52.4954C34.2772 52.4332 34.2276 52.3827 34.1664 52.3827C34.1052 52.3827 34.0557 52.4332 34.0557 52.4954V66.2481C34.0557 66.3104 34.1052 66.3608 34.1664 66.3608C34.2276 66.3608 34.2772 66.3104 34.2772 66.2481Z" fill="#47A118"/>
<path d="M32.6517 65.1984V52.4453C32.6517 52.3831 32.6021 52.3327 32.5409 52.3327C32.4797 52.3327 32.4302 52.3831 32.4302 52.4453V65.1984C32.4302 65.2605 32.4797 65.3111 32.5409 65.3111C32.6021 65.3111 32.6517 65.2605 32.6517 65.1984Z" fill="#47A118"/>
<path d="M31.0261 64.1464V52.393C31.0261 52.3309 30.9765 52.2805 30.9153 52.2805C30.8542 52.2805 30.8046 52.3309 30.8046 52.393V64.1464C30.8046 64.2087 30.8542 64.2591 30.9153 64.2591C30.9765 64.2591 31.0261 64.2087 31.0261 64.1464Z" fill="#47A118"/>
<path d="M52.8978 74.8532V65.4454C52.8978 65.3833 52.8481 65.3329 52.7869 65.3329C52.7257 65.3329 52.6761 65.3833 52.6761 65.4454V74.8532C52.6761 74.9155 52.7257 74.9659 52.7869 74.9659C52.8481 74.9659 52.8978 74.9155 52.8978 74.8532Z" fill="#47A118"/>
<path d="M54.9466 73.5225V64.1321C54.9466 64.0699 54.8971 64.0195 54.8359 64.0195C54.7747 64.0195 54.7251 64.0699 54.7251 64.1321V73.5225C54.7251 73.5847 54.7747 73.6351 54.8359 73.6351C54.8971 73.6351 54.9466 73.5847 54.9466 73.5225Z" fill="#47A118"/>
<path d="M56.9904 72.1895V62.8187C56.9904 62.7566 56.9409 62.7062 56.8797 62.7062C56.8185 62.7062 56.7689 62.7566 56.7689 62.8187V72.1895C56.7689 72.2517 56.8185 72.3021 56.8797 72.3021C56.9409 72.3021 56.9904 72.2517 56.9904 72.1895Z" fill="#47A118"/>
<path d="M59.0393 70.8545V61.5033C59.0393 61.4412 58.9896 61.3907 58.9284 61.3907C58.8673 61.3907 58.8176 61.4412 58.8176 61.5033V70.8545C58.8176 70.9167 58.8673 70.9671 58.9284 70.9671C58.9896 70.9671 59.0393 70.9167 59.0393 70.8545Z" fill="#47A118"/>
<path d="M61.0832 69.5216V60.1901C61.0832 60.1278 61.0337 60.0774 60.9725 60.0774C60.9113 60.0774 60.8617 60.1278 60.8617 60.1901V69.5216C60.8617 69.5838 60.9113 69.6342 60.9725 69.6342C61.0337 69.6342 61.0832 69.5838 61.0832 69.5216Z" fill="#47A118"/>
<path d="M63.1303 68.1866V52.6501C63.1303 52.5878 63.0807 52.5374 63.0196 52.5374C62.9584 52.5374 62.9087 52.5878 62.9087 52.6501V68.1866C62.9087 68.2488 62.9584 68.2992 63.0196 68.2992C63.0807 68.2992 63.1303 68.2488 63.1303 68.1866Z" fill="#47A118"/>
<path d="M65.1413 66.8711V52.6501C65.1413 52.5878 65.0916 52.5374 65.0304 52.5374C64.9694 52.5374 64.9197 52.5878 64.9197 52.6501V66.8711C64.9197 66.9333 64.9694 66.9837 65.0304 66.9837C65.0916 66.9837 65.1413 66.9333 65.1413 66.8711Z" fill="#47A118"/>
<path d="M67.1884 65.5382V52.6501C67.1884 52.5878 67.1389 52.5374 67.0777 52.5374C67.0165 52.5374 66.9669 52.5878 66.9669 52.6501V65.5382C66.9669 65.6004 67.0165 65.6508 67.0777 65.6508C67.1389 65.6508 67.1884 65.6004 67.1884 65.5382Z" fill="#47A118"/>
<path d="M69.2356 64.2053V52.6501C69.2356 52.5878 69.186 52.5374 69.1248 52.5374C69.0636 52.5374 69.014 52.5878 69.014 52.6501V64.2053C69.014 64.2675 69.0636 64.3179 69.1248 64.3179C69.186 64.3179 69.2356 64.2675 69.2356 64.2053Z" fill="#47A118"/>
<path d="M71.2811 62.8724V52.65C71.2811 52.5878 71.2315 52.5374 71.1703 52.5374C71.1091 52.5374 71.0596 52.5878 71.0596 52.65V62.8724C71.0596 62.9346 71.1091 62.985 71.1703 62.985C71.2315 62.985 71.2811 62.9346 71.2811 62.8724Z" fill="#47A118"/>
<path d="M31.7656 40.0762L31.3777 39.8626C31.0638 39.6898 30.9483 39.2903 31.1203 38.9723C31.2912 38.6567 31.6809 38.5408 31.9921 38.7133L32.3844 38.9306L50.0643 27.4501C50.6179 27.0906 51.3265 27.0906 51.8802 27.4501L69.56 38.9306L69.9541 38.7128C70.2655 38.5407 70.6551 38.657 70.8255 38.9729C70.9969 39.2907 70.8812 39.6896 70.5678 39.8621L70.1788 40.0762V49.2193H71.4726V39.5582C71.4726 38.9732 71.179 38.4286 70.694 38.1136L51.8803 25.8952C51.3266 25.5356 50.6179 25.5356 50.0642 25.8952L31.2504 38.1136C30.7654 38.4286 30.4719 38.9732 30.4719 39.5582V49.2193H31.7656V40.0762Z" fill="#47A118"/>
<path d="M61.6149 44.8002C61.3054 44.8666 61.1396 44.3959 61.0592 44.0372C61.0076 43.8067 61.1277 43.5793 61.3325 43.4673L51.8804 37.3293C51.3267 36.9698 50.618 36.9698 50.0644 37.3294L40.6144 43.4673C40.7998 43.5693 40.8681 43.8052 40.7664 43.993L40.5141 44.4595C40.4121 44.648 40.1795 44.7175 39.9934 44.615V49.2192H41.2871V45.5215C41.2871 44.9364 41.5806 44.3918 42.0657 44.0768L50.3255 38.7128V38.1746C50.3255 37.8115 50.6151 37.5171 50.9723 37.5171C51.3296 37.5171 51.6192 37.8115 51.6192 38.1746V38.7128L59.8791 44.0768C60.3641 44.3918 60.6576 44.9364 60.6576 45.5215V49.2192H61.9513V44.615C61.9513 44.615 61.7611 44.7688 61.6149 44.8002Z" fill="#47A118"/>
<path d="M61.3325 43.4673C61.1277 43.5793 61.0076 43.8067 61.0592 44.0372C61.1396 44.3959 61.3054 44.8666 61.6149 44.8002C61.7611 44.7688 61.9513 44.615 61.9513 44.615L70.1788 40.0762L70.5677 39.8622C70.8812 39.6896 70.9969 39.2907 70.8255 38.973C70.6551 38.657 70.2655 38.5407 69.9541 38.7128L69.56 38.9306L61.3325 43.4673Z" fill="#47A118"/>
<path d="M39.9934 44.615C40.1795 44.7175 40.4121 44.648 40.5141 44.4595L40.7665 43.993C40.8681 43.8052 40.7998 43.5693 40.6144 43.4673L32.3843 38.9306L31.9921 38.7133C31.6809 38.5408 31.2911 38.6567 31.1203 38.9723C30.9483 39.2903 31.0637 39.6898 31.3777 39.8626L31.7656 40.0762L39.9934 44.615Z" fill="#47A118"/>
<path d="M50.3253 48.7988H51.6189V48.446L51.6193 38.7128V38.1746C51.6193 37.8115 51.3296 37.5171 50.9724 37.5171C50.6151 37.5171 50.3256 37.8115 50.3256 38.1746V38.7128L50.3253 48.446V48.7988Z" fill="#47A118"/>
<path d="M51.6188 48.7988H50.3252V48.446L49.1523 49.2191H52.7919L51.6188 48.446V48.7988Z" fill="#47A118"/>
<path d="M26.9318 50.2571V51.3715H80.0078C80.3105 51.3715 80.5559 51.122 80.5559 50.8143C80.5559 50.5066 80.3105 50.2571 80.0078 50.2571H26.9318Z" fill="#47A118"/>
<path d="M22.9203 50.2571C22.6176 50.2571 22.3722 50.5066 22.3722 50.8143C22.3722 51.122 22.6176 51.3715 22.9203 51.3715H26.9319V50.2571H22.9203Z" fill="#47A118"/>
<path d="M20.9386 50.8143C20.9386 51.122 20.6932 51.3715 20.3905 51.3715C20.0878 51.3715 19.8424 51.122 19.8424 50.8143C19.8424 50.5065 20.0878 50.2571 20.3905 50.2571C20.6932 50.2571 20.9386 50.5065 20.9386 50.8143Z" fill="#47A118"/>
<path fill-rule="evenodd" clip-rule="evenodd" d="M49.1524 49.2191H52.792L51.6189 48.446L51.6193 38.7128L59.8791 44.0768C60.3641 44.3918 60.6577 44.9363 60.6577 45.5215V49.2191H61.9513V44.615L70.1788 40.0762V49.2193H71.4725V39.5582C71.4725 38.9732 71.179 38.4286 70.694 38.1136L51.8803 25.8952C51.3266 25.5356 50.6179 25.5356 50.0642 25.8952L31.2503 38.1136C30.7654 38.4286 30.4719 38.9732 30.4719 39.5582V49.2193H31.7656V40.0762L39.9934 44.615V49.2191H41.2871V45.5215C41.2871 44.9363 41.5807 44.3918 42.0657 44.0768L50.3255 38.7128L50.3253 48.446L49.1524 49.2191ZM50.0723 48.3062L48.2975 49.4763H53.647L51.8719 48.3062L51.8722 39.1822L59.7429 44.2935C60.1552 44.5612 60.4047 45.0242 60.4047 45.5215V49.4763H62.2042V44.7681L69.9259 40.5083V49.4763H71.7255V39.5582C71.7255 38.8855 71.3879 38.2592 70.8302 37.8969L52.0165 25.6785C51.3797 25.265 50.5647 25.265 49.928 25.6785L31.1141 37.8969C30.5564 38.2592 30.2189 38.8855 30.2189 39.5582V49.4763H32.0186V40.5083L39.7405 44.7681V49.4763H41.5401V45.5215C41.5401 45.0242 41.7896 44.5612 42.2018 44.2935L50.0726 39.1822L50.0723 48.3062ZM61.3325 43.4673L69.56 38.9306L51.8801 27.4501C51.3265 27.0906 50.6179 27.0906 50.0643 27.4501L32.3843 38.9306L40.6144 43.4673L50.0644 37.3294C50.618 36.9698 51.3267 36.9698 51.8804 37.3293L61.3325 43.4673ZM40.6039 43.169L32.8822 38.9125L50.2005 27.6668C50.671 27.3612 51.2733 27.3612 51.7439 27.6668L69.0622 38.9126L61.343 43.169L52.0166 37.1126C51.3799 36.6991 50.5648 36.6992 49.9282 37.1127L40.6039 43.169ZM22.9203 51.3715C22.6176 51.3715 22.3722 51.122 22.3722 50.8143C22.3722 50.5066 22.6176 50.2571 22.9203 50.2571H80.0079C80.3105 50.2571 80.5559 50.5066 80.5559 50.8143C80.5559 51.122 80.3105 51.3715 80.0079 51.3715H22.9203ZM44.8575 62.0177C44.8369 62.0923 44.8261 62.1701 44.8261 62.2496V72.8103C44.8261 72.8725 44.7765 72.9229 44.7153 72.9229C44.6541 72.9229 44.6045 72.8725 44.6045 72.8103V61.7076C44.6045 61.6693 44.6248 61.6339 44.6577 61.615L54.8163 55.3382C54.8882 55.2938 54.9519 55.2395 55.0065 55.1776C55.0924 55.0801 55.1553 54.9637 55.1901 54.8375C55.2107 54.763 55.2215 54.6851 55.2215 54.6057V52.3321C55.2215 52.2698 55.2712 52.2194 55.3323 52.2194C55.3935 52.2194 55.4432 52.2698 55.4432 52.3321V55.1497C55.4432 55.1869 55.4237 55.2213 55.3922 55.2403L45.2313 61.5171C45.1585 61.5621 45.0938 61.6174 45.0387 61.6805C44.954 61.7775 44.8919 61.8928 44.8575 62.0177ZM55.5223 55.4608C55.63 55.3954 55.6961 55.2772 55.6961 55.1497V52.3321C55.6961 52.1278 55.5332 51.9622 55.3323 51.9622C55.1314 51.9622 54.9686 52.1278 54.9686 52.3321V54.6057C54.9686 54.8152 54.8611 55.0096 54.6849 55.1185L44.5287 61.3939C44.419 61.4589 44.3515 61.5783 44.3515 61.7076V72.8103C44.3515 73.0145 44.5144 73.18 44.7153 73.18C44.9162 73.18 45.079 73.0145 45.079 72.8103V62.2496C45.079 62.0401 45.1865 61.8457 45.3627 61.7368L55.5205 55.4618C55.5211 55.4614 55.5217 55.4611 55.5223 55.4608ZM51.4663 53.3155L41.5084 59.3006C41.3288 59.4086 41.2185 59.6049 41.2185 59.8171V70.5452C41.2185 70.7494 41.0557 70.9149 40.8548 70.9149C40.6539 70.9149 40.4911 70.7494 40.4911 70.5452V59.6951C40.4911 59.3012 40.6957 58.9365 41.0293 58.736L51.0247 52.7283C51.0764 52.6972 51.1082 52.6406 51.1082 52.5795V52.2622C51.1082 52.058 51.271 51.8925 51.4719 51.8925C51.6728 51.8925 51.8356 52.058 51.8356 52.2622V52.6573C51.8356 52.9276 51.6952 53.1778 51.4663 53.3155ZM51.3611 52.5795C51.3611 52.6059 51.3587 52.6318 51.3542 52.6573C51.3375 52.7498 51.2913 52.8341 51.223 52.8974C51.2019 52.9169 51.1786 52.9345 51.1534 52.9496L41.158 58.9573C40.9015 59.1116 40.744 59.392 40.744 59.6951V70.5452C40.744 70.6073 40.7936 70.6577 40.8548 70.6577C40.916 70.6577 40.9655 70.6073 40.9655 70.5452V59.8171C40.9655 59.7759 40.9684 59.7352 40.9742 59.6951C41.0041 59.4835 41.1109 59.2907 41.2731 59.1551C41.3063 59.1273 41.3419 59.1019 41.3797 59.0793L51.3375 53.0942C51.4894 53.0027 51.5827 52.8367 51.5827 52.6573V52.2622C51.5827 52.2001 51.5331 52.1497 51.4719 52.1497C51.4107 52.1497 51.3611 52.2001 51.3611 52.2622V52.5795ZM53.2317 54.5474L43.4338 60.5187C43.256 60.6272 43.1471 60.8225 43.1471 61.0334V71.6777C43.1471 71.882 42.9843 72.0476 42.7834 72.0476C42.5825 72.0476 42.4196 71.882 42.4196 71.6777V60.9115C42.4196 60.5199 42.6219 60.157 42.9523 59.9557L52.7499 53.9865C52.9279 53.8781 53.0367 53.6827 53.0367 53.4718V52.2971C53.0367 52.093 53.1995 51.9274 53.4004 51.9274C53.6014 51.9274 53.7643 52.093 53.7643 52.2971V53.5917C53.7643 53.9833 53.5621 54.346 53.2317 54.5474ZM53.2897 53.4718C53.2897 53.5123 53.2869 53.5523 53.2814 53.5917C53.2521 53.8024 53.1466 53.9947 52.9859 54.1306C52.9528 54.1586 52.9174 54.1841 52.88 54.2071L43.0823 60.1762C42.8282 60.3312 42.6725 60.6103 42.6725 60.9115V71.6777C42.6725 71.74 42.7222 71.7904 42.7834 71.7904C42.8445 71.7904 42.8942 71.74 42.8942 71.6777V61.0334C42.8942 60.9922 42.8971 60.9515 42.9027 60.9115C42.9325 60.7011 43.0381 60.5093 43.1989 60.3739C43.2316 60.3461 43.2667 60.3208 43.3037 60.2983L53.1016 54.3268C53.3558 54.172 53.5112 53.8929 53.5112 53.5917V52.2971C53.5112 52.235 53.4616 52.1846 53.4004 52.1846C53.3393 52.1846 53.2897 52.235 53.2897 52.2971V53.4718ZM57.1051 56.8101L47.29 62.9549C47.1155 63.0643 47.0092 63.2576 47.0092 63.4659V73.945C47.0092 74.1491 46.8464 74.3147 46.6455 74.3147C46.4446 74.3147 46.2818 74.1491 46.2818 73.945V63.346C46.2818 62.9593 46.4791 62.6002 46.8031 62.3973L56.6181 56.2523C56.7926 56.1431 56.8989 55.9498 56.8989 55.7415V52.3647C56.8989 52.1605 57.0617 51.995 57.2626 51.995C57.4635 51.995 57.6263 52.1605 57.6263 52.3647V55.8613C57.6263 56.2481 57.4291 56.6072 57.1051 56.8101ZM57.1519 55.7415C57.1519 55.7819 57.149 55.8219 57.1436 55.8613C57.1147 56.0695 57.0113 56.2597 56.8538 56.3954C56.8216 56.4231 56.7873 56.4485 56.7508 56.4713L46.9358 62.6163C46.6865 62.7723 46.5347 63.0485 46.5347 63.346V73.945C46.5347 74.0072 46.5843 74.0576 46.6455 74.0576C46.7067 74.0576 46.7563 74.0072 46.7563 73.945V63.4659C46.7563 63.4255 46.759 63.3855 46.7645 63.346C46.7935 63.1379 46.8967 62.9477 47.0543 62.812C47.0865 62.7843 47.1208 62.7589 47.1573 62.7361L56.9723 56.5911C57.2216 56.4351 57.3734 56.1589 57.3734 55.8613V52.3647C57.3734 52.3025 57.3238 52.252 57.2626 52.252C57.2014 52.252 57.1519 52.3025 57.1519 52.3647V55.7415ZM58.8291 56.8773V52.3995C58.8291 52.1953 58.9919 52.0298 59.1928 52.0298C59.3937 52.0298 59.5565 52.1953 59.5565 52.3995V56.9949C59.5565 57.3794 59.3615 57.7367 59.0407 57.9403L49.2172 64.171C49.0445 64.2806 48.9395 64.4731 48.9395 64.6801V75.0775C48.9395 75.2817 48.7766 75.4473 48.5757 75.4473C48.3748 75.4473 48.212 75.2817 48.212 75.0775V64.5625C48.212 64.178 48.407 63.8206 48.7279 63.6171L58.5513 57.3863C58.7241 57.2768 58.8291 57.0843 58.8291 56.8773ZM48.6865 64.6801C48.6865 64.6405 48.6892 64.6011 48.6945 64.5625C48.7227 64.3551 48.8248 64.1654 48.9809 64.0293C49.0129 64.0015 49.0471 63.9759 49.0833 63.9529L58.9067 57.7221C59.1536 57.5655 59.3036 57.2907 59.3036 56.9949V52.3995C59.3036 52.3373 59.254 52.2869 59.1928 52.2869C59.1316 52.2869 59.0821 52.3373 59.0821 52.3995V56.8773C59.0821 56.917 59.0793 56.9563 59.074 56.9949C59.0458 57.2023 58.9438 57.392 58.7876 57.5281C58.7557 57.5559 58.7215 57.5815 58.6852 57.6045L48.8618 63.8353C48.6149 63.9919 48.4649 64.2667 48.4649 64.5625V75.0775C48.4649 75.1397 48.5145 75.1901 48.5757 75.1901C48.6369 75.1901 48.6865 75.1397 48.6865 75.0775V64.6801ZM60.9764 59.0704L51.1445 65.3893C50.9734 65.4992 50.8697 65.6906 50.8697 65.8964V76.21C50.8697 76.4143 50.7069 76.5797 50.506 76.5797C50.305 76.5797 50.1422 76.4141 50.1422 76.21V65.7788C50.1422 65.3966 50.3349 65.0411 50.6527 64.8369L60.4845 58.5181C60.6556 58.4081 60.7593 58.2167 60.7593 58.0109V52.4321C60.7593 52.2279 60.9221 52.0624 61.123 52.0624C61.3239 52.0624 61.4869 52.2279 61.4869 52.4321V58.1285C61.4869 58.5107 61.2941 58.8662 60.9764 59.0704ZM61.0123 58.0109C61.0123 58.0507 61.0096 58.0899 61.0043 58.1285C60.9763 58.3346 60.8753 58.5233 60.7207 58.6593C60.6892 58.6869 60.6555 58.7125 60.6196 58.7354L50.7878 65.0542C50.5433 65.2113 50.3951 65.4848 50.3951 65.7788V76.21C50.3951 76.2722 50.4448 76.3226 50.506 76.3226C50.5671 76.3226 50.6168 76.2722 50.6168 76.21V65.8964C50.6168 65.8567 50.6194 65.8174 50.6247 65.7788C50.6528 65.5727 50.7537 65.384 50.9084 65.248C50.9398 65.2204 50.9735 65.1949 51.0093 65.1718L60.8413 58.8531C61.0857 58.6959 61.2338 58.4225 61.2338 58.1285V52.4321C61.2338 52.37 61.1842 52.3196 61.123 52.3196C61.0618 52.3196 61.0123 52.37 61.0123 52.4321V58.0109ZM38.9258 69.4018C38.9258 69.464 38.9753 69.5144 39.0365 69.5144C39.0977 69.5144 39.1473 69.464 39.1473 69.4018V52.6501C39.1473 52.5878 39.0977 52.5374 39.0365 52.5374C38.9753 52.5374 38.9258 52.5878 38.9258 52.6501V69.4018ZM39.4003 52.6501V69.4018C39.4003 69.6061 39.2374 69.7715 39.0365 69.7715C38.8357 69.7715 38.6728 69.6061 38.6728 69.4018V52.6499C38.6728 52.4458 38.8357 52.2802 39.0365 52.2802C39.2374 52.2802 39.4003 52.4458 39.4003 52.6501ZM37.3035 68.3521C37.3035 68.4142 37.3531 68.4646 37.4143 68.4646C37.4755 68.4646 37.525 68.4142 37.525 68.3521V52.5999C37.525 52.5377 37.4755 52.4873 37.4143 52.4873C37.3531 52.4873 37.3035 52.5377 37.3035 52.5999V68.3521ZM37.7781 52.5999V68.3521C37.7781 68.5563 37.6151 68.7218 37.4143 68.7218C37.2134 68.7218 37.0505 68.5563 37.0505 68.3521V52.5999C37.0505 52.3957 37.2134 52.2302 37.4143 52.2302C37.6151 52.2302 37.7781 52.3957 37.7781 52.5999ZM35.678 67.3C35.678 67.3622 35.7275 67.4127 35.7887 67.4127C35.8499 67.4127 35.8995 67.3622 35.8995 67.3V52.5476C35.8995 52.4854 35.8499 52.435 35.7887 52.435C35.7275 52.435 35.678 52.4854 35.678 52.5476V67.3ZM36.1525 52.5476V67.3C36.1525 67.5043 35.9896 67.6697 35.7887 67.6697C35.5879 67.6697 35.425 67.5043 35.425 67.3V52.5476C35.425 52.3433 35.5879 52.1779 35.7887 52.1779C35.9896 52.1779 36.1525 52.3433 36.1525 52.5476ZM34.0557 66.2481C34.0557 66.3104 34.1053 66.3608 34.1665 66.3608C34.2277 66.3608 34.2772 66.3104 34.2772 66.2481V52.4954C34.2772 52.4332 34.2277 52.3827 34.1665 52.3827C34.1053 52.3827 34.0557 52.4332 34.0557 52.4954V66.2481ZM34.5302 52.4954V66.2481C34.5302 66.4523 34.3673 66.6179 34.1665 66.6179C33.9656 66.6179 33.8027 66.4523 33.8027 66.2481V52.4954C33.8027 52.2911 33.9656 52.1257 34.1665 52.1257C34.3673 52.1257 34.5302 52.2911 34.5302 52.4954ZM32.4302 65.1983C32.4302 65.2605 32.4797 65.311 32.5409 65.311C32.6021 65.311 32.6517 65.2605 32.6517 65.1983V52.4452C32.6517 52.3831 32.6021 52.3327 32.5409 52.3327C32.4797 52.3327 32.4302 52.3831 32.4302 52.4452V65.1983ZM32.9047 52.4452V65.1983C32.9047 65.4026 32.7418 65.5681 32.5409 65.5681C32.3401 65.5681 32.1772 65.4026 32.1772 65.1983V52.4452C32.1772 52.241 32.3401 52.0755 32.5409 52.0755C32.7418 52.0755 32.9047 52.241 32.9047 52.4452ZM30.8046 64.1464C30.8046 64.2087 30.8542 64.2591 30.9154 64.2591C30.9766 64.2591 31.0262 64.2087 31.0262 64.1464V52.393C31.0262 52.3309 30.9766 52.2805 30.9154 52.2805C30.8542 52.2805 30.8046 52.3309 30.8046 52.393V64.1464ZM31.2791 52.393V64.1464C31.2791 64.3507 31.1163 64.5163 30.9154 64.5163C30.7145 64.5163 30.5516 64.3507 30.5516 64.1464V52.393C30.5516 52.1888 30.7145 52.0233 30.9154 52.0233C31.1163 52.0233 31.2791 52.1888 31.2791 52.393ZM52.6762 74.8532C52.6762 74.9155 52.7258 74.9659 52.787 74.9659C52.8482 74.9659 52.8979 74.9155 52.8979 74.8532V65.4454C52.8979 65.3833 52.8482 65.3329 52.787 65.3329C52.7258 65.3329 52.6762 65.3833 52.6762 65.4454V74.8532ZM53.1508 65.4454V74.8532C53.1508 75.0574 52.9879 75.223 52.787 75.223C52.5861 75.223 52.4233 75.0574 52.4233 74.8532V65.4454C52.4233 65.2412 52.5861 65.0757 52.787 65.0757C52.9879 65.0757 53.1508 65.2412 53.1508 65.4454ZM54.7251 73.5225C54.7251 73.5847 54.7747 73.6351 54.8359 73.6351C54.8971 73.6351 54.9466 73.5847 54.9466 73.5225V64.1321C54.9466 64.0699 54.8971 64.0195 54.8359 64.0195C54.7747 64.0195 54.7251 64.0699 54.7251 64.1321V73.5225ZM55.1996 64.1321V73.5225C55.1996 73.7267 55.0367 73.8922 54.8359 73.8922C54.635 73.8922 54.472 73.7266 54.472 73.5225V64.1321C54.472 63.9279 54.635 63.7623 54.8359 63.7623C55.0367 63.7623 55.1996 63.9279 55.1996 64.1321ZM56.7689 72.1895C56.7689 72.2517 56.8185 72.3021 56.8797 72.3021C56.9409 72.3021 56.9905 72.2517 56.9905 72.1895V62.8187C56.9905 62.7566 56.9409 62.7062 56.8797 62.7062C56.8185 62.7062 56.7689 62.7566 56.7689 62.8187V72.1895ZM57.2434 62.8187V72.1895C57.2434 72.3938 57.0806 72.5593 56.8797 72.5593C56.6788 72.5593 56.516 72.3938 56.516 72.1895V62.8187C56.516 62.6145 56.6788 62.449 56.8797 62.449C57.0806 62.449 57.2434 62.6145 57.2434 62.8187ZM58.8177 70.8545C58.8177 70.9167 58.8674 70.9671 58.9285 70.9671C58.9897 70.9671 59.0393 70.9167 59.0393 70.8545V61.5033C59.0393 61.4412 58.9897 61.3907 58.9285 61.3907C58.8674 61.3907 58.8177 61.4412 58.8177 61.5033V70.8545ZM59.2923 61.5033V70.8545C59.2923 71.0587 59.1295 71.2243 58.9285 71.2243C58.7276 71.2243 58.5647 71.0587 58.5647 70.8545V61.5033C58.5647 61.2991 58.7276 61.1336 58.9285 61.1336C59.1295 61.1336 59.2923 61.2991 59.2923 61.5033ZM60.8617 69.5216C60.8617 69.5837 60.9112 69.6341 60.9724 69.6341C61.0336 69.6341 61.0832 69.5837 61.0832 69.5216V60.19C61.0832 60.1277 61.0336 60.0773 60.9724 60.0773C60.9112 60.0773 60.8617 60.1277 60.8617 60.19V69.5216ZM61.3361 60.19V69.5216C61.3361 69.7258 61.1733 69.8913 60.9724 69.8913C60.7715 69.8913 60.6087 69.7258 60.6087 69.5216V60.19C60.6087 59.9858 60.7715 59.8202 60.9724 59.8202C61.1733 59.8202 61.3361 59.9858 61.3361 60.19ZM62.9087 68.1866C62.9087 68.2487 62.9584 68.2991 63.0196 68.2991C63.0807 68.2991 63.1304 68.2487 63.1304 68.1866V52.6501C63.1304 52.5878 63.0807 52.5374 63.0196 52.5374C62.9584 52.5374 62.9087 52.5878 62.9087 52.6501V68.1866ZM63.3833 52.6501V68.1866C63.3833 68.3907 63.2205 68.5563 63.0196 68.5563C62.8186 68.5563 62.6558 68.3907 62.6558 68.1866V52.6501C62.6558 52.4458 62.8186 52.2802 63.0196 52.2802C63.2205 52.2802 63.3833 52.4458 63.3833 52.6501ZM64.9197 66.871C64.9197 66.9333 64.9694 66.9837 65.0305 66.9837C65.0917 66.9837 65.1413 66.9333 65.1413 66.871V52.6501C65.1413 52.5878 65.0917 52.5374 65.0305 52.5374C64.9694 52.5374 64.9197 52.5878 64.9197 52.6501V66.871ZM65.3943 52.6501V66.871C65.3943 67.0753 65.2313 67.2409 65.0305 67.2409C64.8296 67.2409 64.6667 67.0753 64.6667 66.871V52.6501C64.6667 52.4458 64.8296 52.2802 65.0305 52.2802C65.2313 52.2802 65.3943 52.4458 65.3943 52.6501ZM66.9669 65.5382C66.9669 65.6003 67.0165 65.6507 67.0777 65.6507C67.1389 65.6507 67.1884 65.6003 67.1884 65.5382V52.6501C67.1884 52.5878 67.1389 52.5374 67.0777 52.5374C67.0165 52.5374 66.9669 52.5878 66.9669 52.6501V65.5382ZM67.4414 52.6499V65.5382C67.4414 65.7423 67.2785 65.9079 67.0777 65.9079C66.8768 65.9079 66.7139 65.7423 66.7139 65.5382V52.6499C66.7139 52.4458 66.8768 52.2802 67.0777 52.2802C67.2785 52.2802 67.4414 52.4458 67.4414 52.6499ZM69.0141 64.2052C69.0141 64.2675 69.0637 64.3179 69.1249 64.3179C69.1861 64.3179 69.2356 64.2675 69.2356 64.2052V52.6501C69.2356 52.5878 69.1861 52.5374 69.1249 52.5374C69.0637 52.5374 69.0141 52.5878 69.0141 52.6501V64.2052ZM69.4886 52.6501V64.2052C69.4886 64.4095 69.3257 64.5751 69.1249 64.5751C68.924 64.5751 68.7612 64.4095 68.7612 64.2052V52.6501C68.7612 52.4458 68.924 52.2802 69.1249 52.2802C69.3257 52.2802 69.4886 52.4458 69.4886 52.6501ZM71.0596 62.8724C71.0596 62.9345 71.1092 62.9849 71.1704 62.9849C71.2316 62.9849 71.2811 62.9345 71.2811 62.8724V52.6499C71.2811 52.5878 71.2316 52.5374 71.1704 52.5374C71.1092 52.5374 71.0596 52.5878 71.0596 52.6499V62.8724ZM71.5341 52.6499V62.8724C71.5341 63.0766 71.3713 63.2421 71.1704 63.2421C70.9695 63.2421 70.8067 63.0766 70.8067 62.8724V52.6499C70.8067 52.4458 70.9695 52.2802 71.1704 52.2802C71.3713 52.2802 71.5341 52.4458 71.5341 52.6499ZM80.0079 50C80.4502 50 80.8089 50.3645 80.8089 50.8143C80.8089 51.2641 80.4502 51.6286 80.0079 51.6286H22.9203C22.4779 51.6286 22.1192 51.2641 22.1192 50.8143C22.1192 50.3645 22.4779 50 22.9203 50H80.0079ZM21.1916 50.8143C21.1916 51.2639 20.833 51.6285 20.3906 51.6285C19.9481 51.6285 19.5895 51.2639 19.5895 50.8143C19.5895 50.3645 19.9481 50 20.3906 50C20.833 50 21.1916 50.3645 21.1916 50.8143ZM20.3906 51.3715C20.6933 51.3715 20.9387 51.122 20.9387 50.8143C20.9387 50.5065 20.6933 50.2571 20.3906 50.2571C20.0878 50.2571 19.8425 50.5065 19.8425 50.8143C19.8425 51.122 20.0878 51.3715 20.3906 51.3715Z" fill="#47A118"/>
</svg>
