<svg width="100" height="100" viewBox="0 0 100 100" fill="none" xmlns="http://www.w3.org/2000/svg">
<circle cx="50" cy="50" r="50" fill="#47A118"/>
<path d="M32.7397 44.8727H40.307C40.8462 44.8727 41.2835 44.4354 41.2835 43.8961C41.2835 43.3569 40.8462 42.9196 40.307 42.9196H32.7397C32.2005 42.9196 31.7632 43.3569 31.7632 43.8961C31.7632 44.4354 32.2004 44.8727 32.7397 44.8727Z" fill="white"/>
<path d="M32.7397 51.635H40.307C40.8462 51.635 41.2835 51.1978 41.2835 50.6585C41.2835 50.1193 40.8462 49.6819 40.307 49.6819H32.7397C32.2005 49.6819 31.7632 50.1193 31.7632 50.6585C31.7632 51.1978 32.2004 51.635 32.7397 51.635Z" fill="white"/>
<path d="M42.1145 68.0036C41.9096 67.5125 41.332 67.2714 40.839 67.4754C40.3475 67.6787 40.1078 68.2599 40.3117 68.7507C40.5158 69.2425 41.094 69.4823 41.5861 69.2791C42.0773 69.0763 42.3187 68.4944 42.1145 68.0036Z" fill="white"/>
<path d="M75.738 52.8923L64.1224 40.4235L67.6787 36.8753C68.2965 36.2645 68.6368 35.4495 68.6368 34.5804C68.6368 33.7235 68.3049 32.9169 67.7029 32.3093C66.4574 31.0515 64.4075 31.0353 63.1331 32.2735C63.13 32.2765 63.127 32.2795 63.1239 32.2826L58.2477 37.1469H56.4259V33.3966C56.4259 32.8574 55.9886 32.4201 55.4494 32.4201H50.2781V31.6223C50.2781 31.0831 49.8409 30.6458 49.3015 30.6458C48.7622 30.6458 48.325 31.0831 48.325 31.6223V32.4201H44.7575V31.6223C44.7575 31.0831 44.3202 30.6458 43.781 30.6458C43.2418 30.6458 42.8044 31.0831 42.8044 31.6223V32.4201H39.2369V31.6223C39.2369 31.0831 38.7995 30.6458 38.2603 30.6458C37.721 30.6458 37.2837 31.0831 37.2837 31.6223V32.4201H33.716V31.6223C33.716 31.0831 33.2787 30.6458 32.7394 30.6458C32.2002 30.6458 31.7629 31.0831 31.7629 31.6223V32.4201H26.9766C26.4373 32.4201 26 32.8574 26 33.3966V68.3771C26 68.9164 26.4373 69.3536 26.9766 69.3536H36.9445C37.4838 69.3536 37.9211 68.9164 37.9211 68.3771C37.9211 67.8379 37.4838 67.4005 36.9445 67.4005H27.9531V34.3732H31.7629V35.2592C31.7629 35.7985 32.2002 36.2358 32.7394 36.2358C33.2787 36.2358 33.716 35.7985 33.716 35.2592V34.3732H37.2836V35.2592C37.2836 35.7985 37.7209 36.2358 38.2601 36.2358C38.7994 36.2358 39.2368 35.7985 39.2368 35.2592V34.3732H42.8043V35.2592C42.8043 35.7985 43.2416 36.2358 43.7809 36.2358C44.3201 36.2358 44.7574 35.7985 44.7574 35.2592V34.3732H48.3249V35.2592C48.3249 35.7985 48.7622 36.2358 49.3015 36.2358C49.8407 36.2358 50.278 35.7985 50.278 35.2592V34.3732H54.4726V37.1524C52.7185 37.2237 51.0434 37.9644 49.7996 39.2013L42.613 46.3878C42.1787 46.822 42.2594 47.5659 42.7731 47.8984C43.5824 48.4218 44.4894 48.7601 45.4371 48.8965C45.753 48.942 46.0734 48.9651 46.3964 48.9651C46.398 48.9651 46.3994 48.965 46.4009 48.965L45.2799 50.0834C45.1985 50.1646 45.134 50.2591 45.0863 50.3611L41.9535 55.0666C41.6713 55.4906 41.556 55.9748 41.5981 56.4441H32.7394C32.2002 56.4441 31.7629 56.8814 31.7629 57.4206C31.7629 57.9599 32.2002 58.3973 32.7394 58.3973H43.7377C44.1605 58.3973 44.5868 58.2563 44.9347 58.0198L49.6964 54.7844C49.7528 54.7474 49.8071 54.7039 49.8547 54.6564L52.0632 52.4531L54.4727 54.8573V67.4005H45.5364C44.9971 67.4005 44.5599 67.8379 44.5599 68.3771C44.5599 68.9164 44.9971 69.3536 45.5364 69.3536H55.4494C55.9886 69.3536 56.4259 68.9164 56.4259 68.3771V56.7636C57.6605 57.7889 59.1997 58.3478 60.8251 58.3478H64.7212C65.5315 58.3478 66.3171 58.6839 66.8717 59.2645L74.3122 67.1715C74.904 67.8005 75.9999 67.367 75.9999 66.5023V53.5579C76 53.3109 75.9064 53.073 75.738 52.8923ZM51.1809 40.5824C52.1267 39.6365 53.4221 39.0999 54.7597 39.0999H56.2897L50.2052 45.1696C49.6423 45.7103 49.1094 46.2399 48.3884 46.5741C47.3245 47.0671 46.0885 47.1459 44.97 46.793L51.1809 40.5824ZM64.4979 33.6707C65.0074 33.1798 65.8211 33.185 66.3153 33.6839C66.5527 33.9236 66.6835 34.242 66.6835 34.5804C66.6835 34.9238 66.5493 35.2456 66.3024 35.4897L56.0964 45.6719L55.6046 45.18C55.144 44.7195 54.5629 44.3813 53.9352 44.2076L64.4979 33.6707ZM43.837 56.4044C43.7534 56.4611 43.6755 56.4546 43.603 56.3828C43.495 56.2758 43.5498 56.1934 43.5793 56.1491L46.1312 52.316L47.6388 53.8211L43.837 56.4044ZM49.1659 52.5849L47.3541 50.773L49.2149 48.9164C49.3905 49.5523 49.7386 50.1326 50.2043 50.5983L50.6806 51.0736L49.1659 52.5849ZM74.0469 64.0395L68.2893 57.921C67.363 56.951 66.0625 56.3948 64.7212 56.3948H60.8251C59.5059 56.3948 58.2654 55.8821 57.3322 54.9515L51.5818 49.2136C50.7515 48.5911 50.937 47.2109 51.582 46.5558C52.3067 45.8505 53.5146 45.852 54.2234 46.561L58.8955 51.233C59.2714 51.6088 59.9006 51.6089 60.2766 51.233C60.658 50.8518 60.658 50.2334 60.2766 49.8519L57.4775 47.0528L62.7389 41.8038L74.0469 53.9424V64.0395Z" fill="white"/>
</svg>
