<svg width="100" height="100" viewBox="0 0 100 100" fill="none" xmlns="http://www.w3.org/2000/svg">
<circle cx="50" cy="50" r="50" fill="#47A118"/>
<path d="M57.5 28.6666H68.3333V69.5H31.6666V28.6666H42.5" stroke="white" stroke-width="2" stroke-miterlimit="10"/>
<path d="M43.3333 25.3334H56.6667C57.1267 25.3334 57.5 25.7067 57.5 26.1667V30.3334C57.5 30.7934 57.1267 31.1667 56.6667 31.1667H43.3333C42.8733 31.1667 42.5 30.7934 42.5 30.3334V26.1667C42.5 25.7067 42.8733 25.3334 43.3333 25.3334Z" stroke="white" stroke-width="2" stroke-miterlimit="10"/>
<path d="M36.6667 31.1666H35V32.8333H36.6667V31.1666Z" fill="white"/>
<path d="M36.6667 35.3334H35V37H36.6667V35.3334Z" fill="white"/>
<path d="M53.3334 37.8334H63.3334V47.8334H53.3334V37.8334Z" stroke="white" stroke-width="2" stroke-miterlimit="10"/>
<path d="M37.5 42.8334H45.8333" stroke="white" stroke-width="2" stroke-miterlimit="10"/>
<path d="M37.5 58.6667H45.8333" stroke="white" stroke-width="2" stroke-miterlimit="10"/>
<path d="M41.6666 54.5V62.8333" stroke="white" stroke-width="2" stroke-miterlimit="10"/>
<path d="M56.1716 42.3384L58.3333 44.5001L61.3541 41.4792" stroke="white" stroke-width="2" stroke-miterlimit="10"/>
<path d="M53.3334 53.6667H63.3334V63.6667H53.3334V53.6667Z" stroke="white" stroke-width="2" stroke-miterlimit="10"/>
</svg>
