<svg width="100" height="100" viewBox="0 0 100 100" fill="none" xmlns="http://www.w3.org/2000/svg">
<circle cx="50" cy="50" r="50" fill="#EDFFE1"/>
<g clip-path="url(#clip0_427_497)">
<path d="M30.6834 41.0683C29.1809 43.2725 28.3334 45.965 28.3334 49.1667C28.3334 56.11 32.3217 60.6525 38.3334 63.0233V72.3975L51.7225 64.965" stroke="#47A118" stroke-width="2" stroke-miterlimit="10"/>
<path d="M33.8676 37.7625C33.4717 38.0617 33.0926 38.3767 32.7334 38.7067" stroke="#47A118" stroke-width="2" stroke-miterlimit="10"/>
<path d="M45.1133 64.7017C46.6842 64.9017 48.32 65 50 65C61.9658 65 71.6667 60 71.6667 49.1667C71.6667 38.3333 61.9658 33.3333 50 33.3333C44.7167 33.3333 39.875 34.3083 36.115 36.3292" stroke="#47A118" stroke-width="2" stroke-miterlimit="10"/>
<path d="M70 34.1667H68.3334V35.8333H70V34.1667Z" fill="#47A118"/>
<path d="M65 29.1667H63.3334V30.8333H65V29.1667Z" fill="#47A118"/>
<path d="M61.6667 30.8333H60V32.5H61.6667V30.8333Z" fill="#47A118"/>
<path d="M68.3333 30.8333H66.6666V32.5H68.3333V30.8333Z" fill="#47A118"/>
<path d="M30.8333 64.1667H29.1666V65.8333H30.8333V64.1667Z" fill="#47A118"/>
<path d="M26.6667 60H25V61.6667H26.6667V60Z" fill="#47A118"/>
<path d="M27.5 56.6667H25.8334V58.3333H27.5V56.6667Z" fill="#47A118"/>
<path d="M27.5 63.3333H25.8334V65H27.5V63.3333Z" fill="#47A118"/>
<path d="M34.1667 63.3333H32.5V65H34.1667V63.3333Z" fill="#47A118"/>
<path d="M59.1667 66.6667H57.5V68.3333H59.1667V66.6667Z" fill="#47A118"/>
<path d="M62.5 68.3333H60.8334V70H62.5V68.3333Z" fill="#47A118"/>
<path d="M65.8333 69.1667H64.1666V70.8333H65.8333V69.1667Z" fill="#47A118"/>
<path d="M72.5 66.6667H70.8334V68.3333H72.5V66.6667Z" fill="#47A118"/>
<path d="M74.1667 63.3333H72.5V65H74.1667V63.3333Z" fill="#47A118"/>
<path d="M69.1667 68.3333H67.5V70H69.1667V68.3333Z" fill="#47A118"/>
<path d="M75 60H73.3334V61.6667H75V60Z" fill="#47A118"/>
<path d="M74.1667 56.6667H72.5V58.3333H74.1667V56.6667Z" fill="#47A118"/>
<path d="M45 40V46.6667" stroke="#47A118" stroke-width="2" stroke-miterlimit="10"/>
<path d="M55 40V46.6667" stroke="#47A118" stroke-width="2" stroke-miterlimit="10"/>
<path d="M26.6667 36.6667H25V38.3333H26.6667V36.6667Z" fill="#47A118"/>
<path d="M27.5 40.8333H25.8334V42.5H27.5V40.8333Z" fill="#47A118"/>
<path d="M27.5 32.5H25.8334V34.1667H27.5V32.5Z" fill="#47A118"/>
<path d="M37.5 25.8333H35.8334V27.5H37.5V25.8333Z" fill="#47A118"/>
<path d="M41.6667 26.6667H40V28.3333H41.6667V26.6667Z" fill="#47A118"/>
<path d="M45 29.1667H43.3334V30.8333H45V29.1667Z" fill="#47A118"/>
<path d="M33.3333 26.6667H31.6666V28.3333H33.3333V26.6667Z" fill="#47A118"/>
<path d="M30 29.1667H28.3334V30.8333H30V29.1667Z" fill="#47A118"/>
<path d="M38.0792 50.2058C39.8834 54.9533 44.5401 58.3333 50.0001 58.3333C55.4601 58.3333 60.1167 54.9533 61.9209 50.2067" stroke="#47A118" stroke-width="2" stroke-miterlimit="10"/>
</g>
<defs>
<clipPath id="clip0_427_497">
<rect width="50" height="50" fill="white" transform="translate(25 25)"/>
</clipPath>
</defs>
</svg>
