<svg width="41" height="41" viewBox="0 0 41 41" fill="none" xmlns="http://www.w3.org/2000/svg">
<g clip-path="url(#clip0_427_784)">
<path d="M1.13452 20.1389C1.13452 12.8565 2.49486 7.99035 5.53475 4.92935C8.57373 1.86926 13.404 0.5 20.6345 0.5C27.865 0.5 32.6953 1.86926 35.7343 4.92935C38.7742 7.99035 40.1345 12.8565 40.1345 20.1389C40.1345 27.4213 38.7742 32.2874 35.7343 35.3484C32.6953 38.4085 27.865 39.7778 20.6345 39.7778C13.404 39.7778 8.57373 38.4085 5.53475 35.3484C2.49486 32.2874 1.13452 27.4213 1.13452 20.1389Z" stroke="#D8D6D6"/>
<path fill-rule="evenodd" clip-rule="evenodd" d="M26.953 12.1806L9.07379 20.0302C8.94413 20.0841 8.83297 20.1771 8.75467 20.2973C8.67637 20.4175 8.63452 20.5593 8.63452 20.7045C8.63452 20.8497 8.67637 20.9915 8.75467 21.1117C8.83297 21.2319 8.94413 21.3249 9.07379 21.3788L12.4002 22.4681C12.9265 22.637 13.4828 22.6797 14.0273 22.5929C14.5718 22.506 15.0902 22.2919 15.5436 21.9667L23.0778 16.5549C23.1316 16.526 23.1933 16.5171 23.2527 16.5296C23.312 16.5421 23.3655 16.5753 23.4043 16.6236C23.4431 16.672 23.4648 16.7327 23.4659 16.7956C23.4671 16.8586 23.4475 16.9201 23.4105 16.9699L17.6392 22.7101C17.4924 22.8599 17.3792 23.0416 17.3077 23.2421C17.2363 23.4426 17.2083 23.657 17.2257 23.8701C17.2432 24.0832 17.3057 24.2896 17.4088 24.4746C17.5119 24.6597 17.6531 24.8188 17.8222 24.9405L24.0258 29.2976C24.2197 29.4303 24.4424 29.5108 24.6737 29.5316C24.905 29.5524 25.1376 29.513 25.3506 29.4169C25.5635 29.3208 25.7501 29.171 25.8934 28.9812C26.0367 28.7913 26.1322 28.5673 26.1713 28.3294L28.6162 13.5638C28.6539 13.3408 28.6332 13.1113 28.5562 12.8995C28.4793 12.6877 28.3489 12.5013 28.1789 12.3599C28.0088 12.2185 27.8053 12.1272 27.5896 12.0956C27.3739 12.0641 27.1541 12.0934 26.953 12.1806Z" fill="#D8D6D6"/>
</g>
<defs>
<clipPath id="clip0_427_784">
<rect width="40" height="40.2778" fill="white" transform="translate(0.634521)"/>
</clipPath>
</defs>
</svg>
