<svg width="40" height="40" viewBox="0 0 40 40" fill="none" xmlns="http://www.w3.org/2000/svg">
<path d="M0.5 20C0.5 12.7688 1.86007 7.93794 4.89901 4.89901C7.93794 1.86007 12.7688 0.5 20 0.5C27.2312 0.5 32.0621 1.86007 35.101 4.89901C38.1399 7.93794 39.5 12.7688 39.5 20C39.5 27.2312 38.1399 32.0621 35.101 35.101C32.0621 38.1399 27.2312 39.5 20 39.5C12.7688 39.5 7.93794 38.1399 4.89901 35.101C1.86007 32.0621 0.5 27.2312 0.5 20Z" stroke="#D8D6D6"/>
<path d="M22.2067 14.2345C23.0779 14.4044 23.8785 14.8305 24.5062 15.4581C25.1338 16.0858 25.5599 16.8864 25.7298 17.7576M22.2067 10.6667C24.0167 10.8678 25.7045 11.6783 26.993 12.9652C28.2816 14.2522 29.0943 15.939 29.2976 17.7487M28.4057 24.8664V27.5422C28.4067 27.7906 28.3558 28.0365 28.2563 28.2641C28.1568 28.4917 28.0108 28.696 27.8278 28.864C27.6447 29.0319 27.4286 29.1598 27.1933 29.2393C26.958 29.3189 26.7086 29.3485 26.4612 29.3261C23.7166 29.0279 21.0802 28.09 18.7638 26.5879C16.6087 25.2184 14.7816 23.3913 13.4121 21.2362C11.9047 18.9093 10.9666 16.2601 10.6739 13.5031C10.6516 13.2564 10.6809 13.0078 10.7599 12.7731C10.839 12.5384 10.966 12.3227 11.133 12.1398C11.3 11.9569 11.5032 11.8108 11.7297 11.7107C11.9563 11.6107 12.2012 11.5589 12.4488 11.5586H15.1247C15.5575 11.5544 15.9772 11.7077 16.3054 11.9899C16.6336 12.2722 16.848 12.6641 16.9085 13.0928C17.0215 13.9491 17.2309 14.7899 17.5329 15.5991C17.6529 15.9184 17.6789 16.2653 17.6077 16.5989C17.5366 16.9324 17.3713 17.2386 17.1315 17.4811L15.9988 18.6139C17.2685 20.8469 19.1174 22.6958 21.3504 23.9655L22.4832 22.8328C22.7257 22.593 23.0319 22.4277 23.3654 22.3566C23.699 22.2854 24.0459 22.3114 24.3652 22.4314C25.1744 22.7334 26.0152 22.9428 26.8715 23.0558C27.3048 23.1169 27.7005 23.3351 27.9834 23.669C28.2662 24.0028 28.4165 24.429 28.4057 24.8664Z" stroke="#D8D6D6" stroke-linecap="round" stroke-linejoin="round"/>
</svg>
