<svg width="100" height="100" viewBox="0 0 100 100" fill="none" xmlns="http://www.w3.org/2000/svg">
<circle cx="50" cy="50" r="50" fill="#EDFFE1"/>
<path d="M29.3334 35H31" stroke="#47A118" stroke-width="2" stroke-miterlimit="10"/>
<path d="M63.6375 48.9942L60.7942 44.1192C60.2034 43.1067 59.47 42.2025 58.6267 41.4275" stroke="#47A118" stroke-width="2" stroke-miterlimit="10"/>
<path d="M57.4825 40.5008C57.0775 40.2125 56.6542 39.9508 56.2167 39.7175" stroke="#47A118" stroke-width="2" stroke-miterlimit="10"/>
<path d="M32.6667 35H50.72C56.0534 35 60.9859 37.8325 63.6734 42.44L69.9275 53.1617C70.63 54.3658 71 55.7342 71 57.1283C71 61.4758 67.4759 65 63.1284 65H31.8334" stroke="#47A118" stroke-width="2" stroke-miterlimit="10"/>
<path d="M50.1666 35L58.9416 50.955C59.1833 51.3942 59.6441 51.6667 60.1458 51.6667H69.055" stroke="#47A118" stroke-width="2" stroke-miterlimit="10"/>
<path d="M41 30.8333H42.6667" stroke="#47A118" stroke-width="2" stroke-miterlimit="10"/>
<path d="M44.3334 30.8333H66.8334" stroke="#47A118" stroke-width="2" stroke-miterlimit="10"/>
<path d="M34.3334 41.6666H36" stroke="#47A118" stroke-width="2" stroke-miterlimit="10"/>
<path d="M37.6666 41.6666H43.5" stroke="#47A118" stroke-width="2" stroke-miterlimit="10"/>
<path d="M33.5 48.3333H35.1667" stroke="#47A118" stroke-width="2" stroke-miterlimit="10"/>
<path d="M36.8334 48.3333H49.3334" stroke="#47A118" stroke-width="2" stroke-miterlimit="10"/>
<path d="M31 56.6666H32.6667" stroke="#47A118" stroke-width="2" stroke-miterlimit="10"/>
<path d="M34.3334 56.6666H41.8334" stroke="#47A118" stroke-width="2" stroke-miterlimit="10"/>
<path d="M70.7066 55H46C45.54 55 45.1666 55.3733 45.1666 55.8333V60.8333C45.1666 61.2933 45.54 61.6667 46 61.6667H69.56" stroke="#47A118" stroke-width="2" stroke-miterlimit="10"/>
<path d="M61 65H72.6667" stroke="#47A118" stroke-width="2" stroke-miterlimit="10"/>
<path d="M72.6667 70H31.8334" stroke="#47A118" stroke-width="2" stroke-miterlimit="10"/>
<path d="M30.1667 70H28.5" stroke="#47A118" stroke-width="2" stroke-miterlimit="10"/>
</svg>
