<svg width="24" height="24" viewBox="0 0 24 24" fill="none" xmlns="http://www.w3.org/2000/svg">
<path d="M9.375 7.44699H11.107V15.3759C11.107 15.479 11.1914 15.5634 11.2945 15.5634H12.7008C12.8039 15.5634 12.8883 15.479 12.8883 15.3759V7.44699H14.625C14.782 7.44699 14.8687 7.26652 14.7727 7.14465L12.1477 3.82121C12.1301 3.7988 12.1077 3.78067 12.0821 3.76821C12.0565 3.75575 12.0285 3.74927 12 3.74927C11.9715 3.74927 11.9435 3.75575 11.9179 3.76821C11.8923 3.78067 11.8699 3.7988 11.8523 3.82121L9.22734 7.1423C9.13125 7.26652 9.21797 7.44699 9.375 7.44699ZM20.5781 14.6728H19.1719C19.0688 14.6728 18.9844 14.7571 18.9844 14.8603V18.4696H5.01562V14.8603C5.01562 14.7571 4.93125 14.6728 4.82812 14.6728H3.42188C3.31875 14.6728 3.23438 14.7571 3.23438 14.8603V19.5009C3.23438 19.9157 3.56953 20.2509 3.98438 20.2509H20.0156C20.4305 20.2509 20.7656 19.9157 20.7656 19.5009V14.8603C20.7656 14.7571 20.6812 14.6728 20.5781 14.6728Z" fill="#47A118"/>
</svg>
