<svg width="41" height="40" viewBox="0 0 41 40" fill="none" xmlns="http://www.w3.org/2000/svg">
<path d="M0.817261 20C0.817261 12.7688 2.17733 7.93794 5.21627 4.89901C8.25521 1.86007 13.0861 0.5 20.3173 0.5C27.5485 0.5 32.3793 1.86007 35.4183 4.89901C38.4572 7.93794 39.8173 12.7688 39.8173 20C39.8173 27.2312 38.4572 32.0621 35.4183 35.101C32.3793 38.1399 27.5485 39.5 20.3173 39.5C13.0861 39.5 8.25521 38.1399 5.21627 35.101C2.17733 32.0621 0.817261 27.2312 0.817261 20Z" stroke="#D8D6D6"/>
<path d="M9.65063 30.6666L10.5102 28.1247C10.7967 27.3069 11.0295 26.4715 11.3518 25.6715C11.4398 25.501 11.4857 25.3121 11.4857 25.1205C11.4857 24.9288 11.4398 24.74 11.3518 24.5694C10.3337 22.7035 9.91819 20.572 10.1616 18.4637C10.4051 16.3555 11.2957 14.3726 12.7128 12.7838C13.7415 11.6197 15.0254 10.7051 16.4658 10.1103C17.9062 9.51561 19.4647 9.25652 21.0217 9.35299C23.3816 9.4303 25.6386 10.3303 27.3967 11.895C29.0591 13.3314 30.2192 15.2548 30.7095 17.3878C31.1189 19.1128 31.0696 20.9138 30.5662 22.614C29.9508 24.7507 28.6414 26.6255 26.8415 27.9469C25.6499 28.8682 24.2678 29.5165 22.7942 29.8453C21.3205 30.1741 19.7919 30.1754 18.3177 29.8489C17.3851 29.6628 16.4858 29.3392 15.6495 28.889C15.5851 28.8589 15.5148 28.8433 15.4436 28.8433C15.3724 28.8433 15.3021 28.8589 15.2377 28.889L10.4386 30.3822L9.65063 30.6666ZM12.3725 27.9824H12.5337L15.5421 27.0403C15.6466 27.0051 15.7599 27.0051 15.8644 27.0403C16.2942 27.2536 16.7061 27.5203 17.1537 27.698C18.9379 28.4759 20.9403 28.608 22.8124 28.0713C23.9136 27.7794 24.9449 27.272 25.8459 26.5791C26.7468 25.8862 27.4993 25.0216 28.0592 24.0361C29.1703 22.1162 29.4981 19.8466 28.9752 17.6942C28.4522 15.5417 27.1183 13.6699 25.2478 12.4638C23.5542 11.3731 21.5312 10.9008 19.5254 11.1278C17.5196 11.3548 15.6556 12.267 14.2528 13.7082C13.1045 14.8722 12.3207 16.3418 11.9965 17.9389C11.7416 19.0339 11.7134 20.1688 11.9134 21.2749C12.1135 22.381 12.5378 23.4353 13.1604 24.3739C13.2615 24.5402 13.315 24.7307 13.315 24.9249C13.315 25.1192 13.2615 25.3097 13.1604 25.476C12.9276 26.2582 12.6769 27.1114 12.3725 27.9824Z" fill="#D8D6D6"/>
<path d="M25.6221 23.1332C25.6126 23.5253 25.5091 23.9061 25.3235 24.232C25.1379 24.5578 24.8779 24.8153 24.5733 24.9747C24.2572 25.178 23.9073 25.2981 23.5478 25.3267C23.1884 25.3553 22.8279 25.2918 22.4914 25.1405C21.8469 24.8655 21.2147 24.552 20.5973 24.2013C19.7997 23.7043 19.0883 23.0359 18.4998 22.2309C17.832 21.3669 17.2588 20.4081 16.7935 19.3766C16.4445 18.6618 16.2812 17.8423 16.3239 17.0195C16.3561 16.5946 16.4649 16.1827 16.643 15.8112C16.8212 15.4397 17.0646 15.1171 17.357 14.8649C17.4919 14.7575 17.6485 14.694 17.811 14.6808C18.009 14.662 18.2079 14.662 18.4058 14.6808C18.4782 14.6916 18.5464 14.7269 18.602 14.7825C18.6576 14.8381 18.6982 14.9115 18.7189 14.9938C18.8754 15.4174 19.0007 15.8409 19.1415 16.2829C19.2824 16.7249 19.3137 16.8722 19.4233 17.1484C19.5196 17.3006 19.5663 17.4884 19.5548 17.6777C19.5433 17.867 19.4744 18.0451 19.3607 18.1796C19.21 18.4112 19.0424 18.6269 18.8598 18.8242C18.793 18.8861 18.748 18.9749 18.7336 19.0735C18.7191 19.1721 18.7362 19.2735 18.7815 19.3582C19.2053 20.2637 19.7679 21.0691 20.4408 21.7337C20.9232 22.1593 21.4491 22.512 22.0061 22.7834C22.0639 22.8455 22.1392 22.8799 22.2175 22.8799C22.2957 22.8799 22.3711 22.8455 22.4288 22.7834L23.2115 21.7337C23.3837 21.5127 23.4619 21.4575 23.6811 21.5864L25.6065 22.765C25.6325 22.821 25.6474 22.8832 25.6501 22.947C25.6529 23.0108 25.6433 23.0744 25.6221 23.1332Z" fill="#D8D6D6"/>
</svg>
