<svg width="41" height="40" viewBox="0 0 41 40" fill="none" xmlns="http://www.w3.org/2000/svg">
<g clip-path="url(#clip0_427_781)">
<path d="M0.775879 20C0.775879 12.7688 2.13595 7.93794 5.17489 4.89901C8.21382 1.86007 13.0447 0.5 20.2759 0.5C27.5071 0.5 32.3379 1.86007 35.3769 4.89901C38.4158 7.93794 39.7759 12.7688 39.7759 20C39.7759 27.2312 38.4158 32.0621 35.3769 35.101C32.3379 38.1399 27.5071 39.5 20.2759 39.5C13.0447 39.5 8.21382 38.1399 5.17489 35.101C2.13595 32.0621 0.775879 27.2312 0.775879 20Z" stroke="#D8D6D6"/>
<path d="M32.0427 15C31.9237 14.1068 31.5922 13.2552 31.076 12.5166C30.7614 12.1774 30.3796 11.9073 29.9549 11.7237C29.5303 11.54 29.072 11.4468 28.6093 11.45C25.276 11.2 20.276 11.2 20.276 11.2C20.276 11.2 15.276 11.2 11.9427 11.45C11.4912 11.456 11.0457 11.5536 10.6332 11.737C10.2206 11.9203 9.84962 12.1856 9.54267 12.5166C9.00276 13.2488 8.64821 14.1009 8.50933 15C8.36367 16.3452 8.2858 17.6969 8.276 19.05V20.95C8.276 22.9666 8.50933 25 8.50933 25C8.63081 25.8925 8.96209 26.7435 9.476 27.4833C10.1875 28.1587 11.1283 28.5398 12.1093 28.5499C14.0427 28.7333 20.276 28.8 20.276 28.8C20.276 28.8 25.276 28.8 28.6093 28.5333C29.0596 28.5294 29.5043 28.4344 29.9168 28.2539C30.3293 28.0735 30.7009 27.8113 31.0093 27.4833C31.547 26.7498 31.9013 25.8983 32.0427 25C32.0427 25 32.276 22.9666 32.276 20.95V19.05C32.2662 17.6969 32.1883 16.3452 32.0427 15ZM17.6427 23.5166V16.4833L24.126 20L17.6427 23.5166Z" fill="#D8D6D6"/>
</g>
<defs>
<clipPath id="clip0_427_781">
<rect width="40" height="40" fill="white" transform="translate(0.275879)"/>
</clipPath>
</defs>
</svg>
